<svg width="100" height="27" viewBox="0 0 100 27" fill="none" xmlns="http://www.w3.org/2000/svg">
<path d="M15.3877 12.5799C15.4104 10.8157 16.3353 9.18618 17.8382 8.26217C16.8858 6.90187 15.3476 6.07034 13.6878 6.01841C11.9416 5.83511 10.2487 7.06333 9.35885 7.06333C8.45178 7.06333 7.08172 6.03661 5.60638 6.06696C3.66523 6.12967 1.89942 7.20657 0.955007 8.90366C-1.0561 12.3857 0.444008 17.503 2.37052 20.3177C3.3344 21.6959 4.46089 23.2354 5.9349 23.1808C7.3773 23.121 7.91601 22.261 9.6571 22.261C11.382 22.261 11.8874 23.1808 13.3914 23.1461C14.9391 23.121 15.9143 21.7617 16.8444 20.3705C17.5369 19.3884 18.0698 18.3031 18.4234 17.1546C16.5851 16.3771 15.3898 14.5758 15.3877 12.5799Z" fill="white"/>
<path d="M12.3761 3.62989C13.22 2.61682 13.6358 1.31468 13.5351 0C12.2458 0.135415 11.0548 0.751614 10.1995 1.72582C9.35495 2.68701 8.92709 3.9445 9.01019 5.22132C10.3168 5.23477 11.5573 4.64822 12.3761 3.62989Z" fill="white"/>
<path fill-rule="evenodd" clip-rule="evenodd" d="M27.1416 19.0611H31.875L33.0107 22.4175H35.0498L30.5664 9.99951H28.4834L24 22.4175H26.0049L27.1416 19.0611ZM31.3838 17.5122H27.6318L29.4824 12.0649H29.5342L31.3838 17.5122Z" fill="white"/>
<path fill-rule="evenodd" clip-rule="evenodd" d="M41.75 23.2444C44.0225 23.2444 45.5283 21.4367 45.5283 18.6233C45.5283 15.8176 44.0137 14.0012 41.7158 14.0012C40.5334 13.9631 39.4258 14.578 38.833 15.6018H38.7988V14.0959H37V26.1447H38.8584V21.6604H38.9014C39.469 22.6906 40.5754 23.3058 41.75 23.2444ZM41.2256 15.585C42.6709 15.585 43.6182 16.7901 43.6182 18.6231H43.6181C43.6181 20.4727 42.6709 21.669 41.2256 21.669C39.8057 21.669 38.8506 20.4473 38.8506 18.6231C38.8506 16.8154 39.8057 15.585 41.2256 15.585Z" fill="white"/>
<path fill-rule="evenodd" clip-rule="evenodd" d="M51.75 23.2444C54.0225 23.2444 55.5288 21.4367 55.5288 18.6233C55.5288 15.8176 54.0137 14.0012 51.7158 14.0012C50.5334 13.9631 49.4258 14.578 48.833 15.6018H48.7988V14.0959H47V26.1447H48.8584V21.6604H48.9014C49.469 22.6906 50.5754 23.3058 51.75 23.2444ZM51.2256 15.585C52.6709 15.585 53.6182 16.7901 53.6182 18.6231C53.6182 20.4727 52.6709 21.669 51.2256 21.669C49.8057 21.669 48.8506 20.4473 48.8506 18.6231C48.8506 16.8154 49.8057 15.585 51.2256 15.585Z" fill="white"/>
<path d="M61.9024 19.1648C62.0401 20.3963 63.2364 21.2048 64.8711 21.2048C66.4376 21.2048 67.5645 20.3963 67.5645 19.2859C67.5645 18.322 66.8848 17.7449 65.2754 17.3494L63.6661 16.9617C61.3858 16.4109 60.3272 15.3445 60.3272 13.614C60.3272 11.4714 62.1944 9.99976 64.8448 9.99976C67.4698 9.99976 69.2686 11.4714 69.3292 13.614H67.4532C67.3409 12.3748 66.3164 11.6267 64.8194 11.6267C63.3223 11.6267 62.2979 12.3836 62.2979 13.4851C62.2979 14.363 62.9522 14.8796 64.5528 15.2751L65.9209 15.6111C68.4688 16.2136 69.5264 17.2371 69.5264 19.0534C69.5264 21.3767 67.6768 22.8318 64.7334 22.8318C61.9795 22.8318 60.1201 21.4109 60 19.1648L61.9024 19.1648Z" fill="white"/>
<path d="M73.1836 12V14.1426H74.9053V15.6143H73.1836V20.6055C73.1836 21.3809 73.5283 21.7422 74.2852 21.7422C74.4895 21.7386 74.6936 21.7243 74.8965 21.6992V23.1621C74.5562 23.2257 74.2104 23.2545 73.8642 23.248C72.0312 23.248 71.3164 22.5595 71.3164 20.8037V15.6143H70V14.1426H71.3164V12H73.1836Z" fill="white"/>
<path fill-rule="evenodd" clip-rule="evenodd" d="M80.294 13.9995C77.6777 13.9995 76 15.7896 76 18.6382C76 21.4946 77.6611 23.2769 80.294 23.2769C82.9277 23.2769 84.5889 21.4946 84.5889 18.6382C84.5889 15.7895 82.919 13.9995 80.294 13.9995ZM80.2939 15.5308C81.7998 15.5308 82.6953 16.6841 82.6953 18.6382H82.6953C82.6953 20.6001 81.7998 21.7446 80.2939 21.7446C78.7881 21.7446 77.8926 20.6001 77.8926 18.6382C77.8926 16.6929 78.7881 15.5308 80.2939 15.5308Z" fill="white"/>
<path d="M86 14.0963H87.7725V15.6373H87.8155C88.0626 14.6453 88.9716 13.9626 89.9932 14.0016C90.2074 14.0008 90.4209 14.0241 90.6299 14.0709V15.8092C90.3596 15.7266 90.0775 15.6887 89.7949 15.6969C89.2486 15.6747 88.7198 15.8925 88.3475 16.293C87.9752 16.6934 87.7965 17.2366 87.8584 17.7799V23.15H86L86 14.0963Z" fill="white"/>
<path fill-rule="evenodd" clip-rule="evenodd" d="M95.2685 23.2769C97.3164 23.2769 98.917 22.1489 99.167 20.5054L97.4023 20.5054C97.0636 21.3454 96.2134 21.8633 95.3115 21.7788C94.6353 21.8037 93.981 21.5369 93.515 21.0462C93.049 20.5556 92.8163 19.8884 92.876 19.2144V19.1021H99.2705V18.4653C99.2705 15.7202 97.6953 13.9995 95.1904 13.9995C92.6436 13.9995 91 15.8413 91 18.6812C91 21.5122 92.6348 23.2769 95.2685 23.2769ZM97.4111 17.8032L92.8848 17.8032C92.8832 17.192 93.1259 16.6054 93.5588 16.1739C93.9918 15.7424 94.5792 15.5017 95.1904 15.5054C95.7969 15.4924 96.3813 15.7329 96.8029 16.1691C97.2244 16.6053 97.4449 17.1976 97.4111 17.8032Z" fill="white"/>
<path d="M26.3896 3.68309H27.1875C27.4652 3.71766 27.7446 3.63457 27.9583 3.45391C28.172 3.27325 28.3004 3.01147 28.3125 2.73192C28.3125 2.18163 27.8984 1.82616 27.1963 1.82616C26.912 1.78643 26.6237 1.8633 26.397 2.0393C26.1702 2.2153 26.0242 2.47548 25.9922 2.76073H25.1162C25.1467 2.24264 25.391 1.7605 25.7908 1.42958C26.1906 1.09867 26.7099 0.948726 27.2246 1.01561C28.3994 1.01561 29.2266 1.67332 29.2266 2.6201C29.2323 3.27371 28.7805 3.84245 28.1426 3.98485V4.05516C28.9066 4.08904 29.4997 4.73384 29.4697 5.49803C29.4149 6.03112 29.1476 6.51967 28.7283 6.85343C28.3091 7.18719 27.773 7.33804 27.2412 7.27196C26.7082 7.34463 26.1685 7.19766 25.7459 6.86475C25.3233 6.53185 25.0541 6.04156 25 5.50634H25.8896C25.9434 6.07714 26.4678 6.44534 27.2412 6.44534C28.0146 6.44534 28.5195 6.03177 28.5195 5.44876C28.5195 4.85745 28.0439 4.49319 27.2129 4.49319H26.3896V3.68309Z" fill="white"/>
<path fill-rule="evenodd" clip-rule="evenodd" d="M32.6748 3.97192C31.6045 4.03833 31 4.50561 31 5.31616C31.0015 5.70048 31.1655 6.06623 31.4515 6.32299C31.7375 6.57975 32.1187 6.70355 32.501 6.66379C33.0463 6.689 33.563 6.41891 33.8535 5.95679H33.9238V6.5896H34.7803V3.51294C34.7803 2.56176 34.1436 1.99976 33.0147 1.99976C31.9932 1.99976 31.2646 2.49585 31.1738 3.26929H32.0342C32.1338 2.95093 32.4766 2.7688 32.9727 2.7688C33.581 2.7688 33.8945 3.03735 33.8945 3.51294V3.90161L32.6748 3.97192ZM33.8946 4.55493V4.93139C33.8751 5.21839 33.7401 5.48521 33.5203 5.67077C33.3004 5.85633 33.0147 5.94474 32.7286 5.91576C32.2451 5.91576 31.8936 5.67992 31.8936 5.27465C31.8936 4.87768 32.1748 4.66674 32.7949 4.62524L33.8946 4.55493Z" fill="white"/>
<path d="M36.8887 2.74781V6.50269H36V1.99976H38.9649V2.74776L36.8887 2.74781Z" fill="white"/>
<path fill-rule="evenodd" clip-rule="evenodd" d="M42.3447 6.65206C43.4814 6.65206 44.2051 5.75508 44.2051 4.32442C44.2051 2.89326 43.4814 2.0002 42.3359 2.00023C41.7482 1.98576 41.2019 2.30209 40.9219 2.81908H40.8555V2.07491H40V8.07491H40.8887V5.89571H40.959C41.2344 6.39593 41.775 6.69097 42.3447 6.65206ZM42.0879 2.79858C42.8408 2.79858 43.291 3.37329 43.291 4.32446C43.291 5.27953 42.8408 5.85424 42.084 5.85425C41.3398 5.85425 40.8721 5.26685 40.8721 4.32837C40.8721 3.38549 41.3399 2.79858 42.0879 2.79858Z" fill="white"/>
<path d="M45.459 8.11549V7.35035C45.5552 7.36257 45.6521 7.36811 45.749 7.36695C46.1411 7.39599 46.4921 7.12514 46.5635 6.73853L46.6299 6.51929L45 1.99976H45.9678L47.0967 5.57642H47.167L48.292 1.99976H49.2344L47.5557 6.68873C47.171 7.78443 46.7452 8.136 45.8272 8.136C45.753 8.13599 45.542 8.12769 45.459 8.11549Z" fill="white"/>
<path d="M50 5.32669H50.8848C50.9717 5.72369 51.3438 5.93069 51.8643 5.93069C52.4561 5.93069 52.8193 5.66995 52.8193 5.26469C52.8193 4.83061 52.4932 4.62358 51.8643 4.62358H51.1904V3.93315H51.8525C52.3896 3.93315 52.6631 3.72661 52.6631 3.35015C52.6631 3.01958 52.3984 2.76715 51.8525 2.76715C51.3555 2.76715 50.9922 2.97809 50.9345 3.33356H50.0781C50.2113 2.48383 51.0005 1.89728 51.8525 2.01471C52.9229 2.01471 53.5352 2.4986 53.5352 3.25934C53.5455 3.69592 53.2491 4.08024 52.8242 4.18122V4.25153C53.3323 4.31707 53.7108 4.7525 53.7051 5.26471C53.7051 6.12071 52.9766 6.68707 51.8643 6.68707C50.8809 6.68704 50.082 6.23636 50 5.32669Z" fill="white"/>
<path d="M55 6.50269V1.99976H55.8809V5.09694H55.9512L58.0264 1.99977H58.9072V6.5027H58.0264V3.38894H57.96L55.8809 6.50271L55 6.50269Z" fill="white"/>
<path d="M63.7257 2.74776H62.3077V6.50264H61.418V2.74776H60V1.99976H63.7257V2.74776Z" fill="white"/>
<path fill-rule="evenodd" clip-rule="evenodd" d="M67.0993 6.67659C67.9795 6.77174 68.8015 6.22316 69.0514 5.37386L68.195 5.37383C67.982 5.75603 67.5592 5.97168 67.1247 5.91973C66.7893 5.92379 66.4678 5.786 66.2394 5.54032C66.011 5.29465 65.897 4.96395 65.9255 4.62973V4.57993H69.1052V4.26983C69.1052 2.85583 68.3483 1.99983 67.0954 1.99983C66.4934 1.9947 65.9188 2.25101 65.5205 2.70237C65.1222 3.15373 64.9393 3.75571 65.0192 4.35237C64.9371 4.94738 65.1207 5.54841 65.5212 5.99598C65.9218 6.44356 66.4989 6.69244 67.0993 6.67659ZM68.1988 3.92287H65.9254C65.921 3.61227 66.0425 3.3131 66.2621 3.0934C66.4817 2.8737 66.7808 2.75215 67.0914 2.75637C67.3976 2.74956 67.6925 2.87234 67.9033 3.09447C68.1142 3.3166 68.2215 3.61743 68.1988 3.92287Z" fill="white"/>
<path fill-rule="evenodd" clip-rule="evenodd" d="M72 1.99976H74.0303C74.9111 1.99976 75.4277 2.44605 75.4277 3.14476C75.4306 3.60167 75.1134 3.99827 74.667 4.09593V4.16624C75.2131 4.20074 75.6365 4.65713 75.6299 5.20433C75.6299 5.98997 75.0391 6.50267 74.0508 6.50267H72V1.99976ZM72.8809 2.68189V3.84789H73.7617C74.2988 3.84789 74.5557 3.64135 74.5557 3.26049C74.5557 2.90942 74.332 2.68188 73.8604 2.68188L72.8809 2.68189ZM72.8809 5.82056V4.50122L73.8232 4.50123C74.4229 4.50123 74.7412 4.71217 74.7412 5.16285C74.7412 5.58863 74.46 5.82056 73.9346 5.82056H72.8809Z" fill="white"/>
</svg>
