<svg width="117" height="28" viewBox="0 0 117 28" fill="none" xmlns="http://www.w3.org/2000/svg">
<path d="M33.3896 4.68309H34.1875C34.4652 4.71766 34.7446 4.63457 34.9583 4.45391C35.172 4.27325 35.3004 4.01147 35.3125 3.73192C35.3125 3.18163 34.8984 2.82616 34.1963 2.82616C33.912 2.78643 33.6237 2.8633 33.397 3.0393C33.1702 3.2153 33.0242 3.47548 32.9922 3.76073H32.1162C32.1467 3.24264 32.391 2.7605 32.7908 2.42958C33.1906 2.09867 33.7099 1.94873 34.2246 2.01561C35.3994 2.01561 36.2266 2.67332 36.2266 3.6201C36.2323 4.27371 35.7805 4.84245 35.1426 4.98485V5.05516C35.9066 5.08904 36.4997 5.73384 36.4697 6.49803C36.4149 7.03112 36.1476 7.51967 35.7283 7.85343C35.3091 8.18719 34.773 8.33804 34.2412 8.27196C33.7082 8.34463 33.1685 8.19766 32.7459 7.86475C32.3233 7.53185 32.0541 7.04156 32 6.50634H32.8896C32.9434 7.07714 33.4678 7.44534 34.2412 7.44534C35.0146 7.44534 35.5195 7.03177 35.5195 6.44876C35.5195 5.85745 35.0439 5.49319 34.2129 5.49319H33.3896V4.68309Z" fill="white"/>
<path fill-rule="evenodd" clip-rule="evenodd" d="M39.6748 4.9724C38.6045 5.03881 38 5.50609 38 6.31664C38.0015 6.70097 38.1655 7.06672 38.4515 7.32348C38.7375 7.58024 39.1187 7.70404 39.501 7.66427C40.0463 7.68949 40.563 7.4194 40.8535 6.95727H40.9238V7.59008H41.7803V4.51342C41.7803 3.56224 41.1436 3.00024 40.0147 3.00024C38.9932 3.00024 38.2646 3.49633 38.1738 4.26977H39.0342C39.1338 3.95141 39.4766 3.76928 39.9727 3.76928C40.581 3.76928 40.8945 4.03783 40.8945 4.51342V4.90209L39.6748 4.9724ZM40.8946 5.55542V5.93188C40.8751 6.21888 40.7401 6.4857 40.5203 6.67126C40.3004 6.85682 40.0147 6.94523 39.7286 6.91625C39.2451 6.91625 38.8936 6.68041 38.8936 6.27514C38.8936 5.87817 39.1748 5.66723 39.7949 5.62573L40.8946 5.55542Z" fill="white"/>
<path d="M43.8888 3.74805V7.50293H43.0001V3H45.965V3.748L43.8888 3.74805Z" fill="white"/>
<path fill-rule="evenodd" clip-rule="evenodd" d="M49.3447 7.65255C50.4814 7.65255 51.2051 6.75557 51.2051 5.32491C51.2051 3.89375 50.4814 3.00069 49.3359 3.00072C48.7482 2.98625 48.2019 3.30258 47.9219 3.81957H47.8555V3.0754H47V9.0754H47.8887V6.8962H47.959C48.2344 7.39641 48.775 7.69146 49.3447 7.65255ZM49.0879 3.79907C49.8408 3.79907 50.291 4.37378 50.291 5.32495C50.291 6.28002 49.8408 6.85473 49.084 6.85474C48.3398 6.85474 47.8721 6.26734 47.8721 5.32886C47.8721 4.38598 48.3399 3.79907 49.0879 3.79907Z" fill="white"/>
<path d="M52.4591 9.11573V8.35059C52.5553 8.36281 52.6522 8.36836 52.7491 8.36719C53.1412 8.39623 53.4922 8.12538 53.5636 7.73877L53.63 7.51953L52.0001 3H52.9679L54.0968 6.57666H54.1672L55.2922 3H56.2345L54.5558 7.68897C54.1711 8.78467 53.7453 9.13624 52.8273 9.13624C52.7531 9.13623 52.5422 9.12793 52.4591 9.11573Z" fill="white"/>
<path d="M57.0001 6.32694H57.8849C57.9718 6.72394 58.3439 6.93094 58.8644 6.93094C59.4562 6.93094 59.8195 6.6702 59.8195 6.26494C59.8195 5.83086 59.4933 5.62383 58.8644 5.62383H58.1906V4.9334H58.8527C59.3898 4.9334 59.6632 4.72686 59.6632 4.3504C59.6632 4.01983 59.3986 3.7674 58.8527 3.7674C58.3556 3.7674 57.9923 3.97834 57.9347 4.33381H57.0783C57.2115 3.48408 58.0006 2.89753 58.8527 3.01496C59.923 3.01496 60.5353 3.49885 60.5353 4.25959C60.5456 4.69616 60.2492 5.08048 59.8243 5.18147V5.25178C60.3324 5.31731 60.7109 5.75274 60.7052 6.26496C60.7052 7.12096 59.9767 7.68732 58.8644 7.68732C57.881 7.68729 57.0822 7.23661 57.0001 6.32694Z" fill="white"/>
<path d="M62.0001 7.50293V3H62.881V6.09718H62.9513L65.0265 3.00001H65.9074V7.50294H65.0265V4.38918H64.9601L62.881 7.50295L62.0001 7.50293Z" fill="white"/>
<path d="M70.7258 3.748H69.3078V7.50288H68.4181V3.748H67.0001V3H70.7258V3.748Z" fill="white"/>
<path fill-rule="evenodd" clip-rule="evenodd" d="M74.0993 7.67708C74.9795 7.77223 75.8015 7.22364 76.0514 6.37435L75.195 6.37432C74.982 6.75652 74.5592 6.97217 74.1247 6.92022C73.7893 6.92427 73.4678 6.78648 73.2394 6.54081C73.011 6.29514 72.897 5.96444 72.9255 5.63022V5.58042H76.1052V5.27032C76.1052 3.85632 75.3483 3.00032 74.0954 3.00032C73.4934 2.99519 72.9188 3.2515 72.5205 3.70286C72.1222 4.15421 71.9393 4.7562 72.0192 5.35286C71.9371 5.94787 72.1207 6.54889 72.5212 6.99647C72.9218 7.44405 73.4989 7.69293 74.0993 7.67708ZM75.1988 4.92287H72.9254C72.921 4.61227 73.0425 4.3131 73.2621 4.0934C73.4817 3.8737 73.7808 3.75215 74.0914 3.75637C74.3976 3.74956 74.6925 3.87234 74.9033 4.09447C75.1142 4.3166 75.2215 4.61743 75.1988 4.92287Z" fill="white"/>
<path fill-rule="evenodd" clip-rule="evenodd" d="M79 3.00024H81.0303C81.9111 3.00024 82.4277 3.44653 82.4277 4.14524C82.4306 4.60215 82.1134 4.99876 81.667 5.09641V5.16672C82.2131 5.20123 82.6365 5.65762 82.6299 6.20481C82.6299 6.99045 82.0391 7.50315 81.0508 7.50315H79V3.00024ZM79.8809 3.68238V4.84838H80.7617C81.2988 4.84838 81.5557 4.64184 81.5557 4.26098C81.5557 3.90991 81.332 3.68237 80.8604 3.68237L79.8809 3.68238ZM79.8809 6.82105V5.50171L80.8232 5.50172C81.4229 5.50172 81.7412 5.71266 81.7412 6.16334C81.7412 6.58912 81.46 6.82105 80.9346 6.82105H79.8809Z" fill="white"/>
<path fill-rule="evenodd" clip-rule="evenodd" d="M38.6 17V18.8H42.9C42.8 19.8 42.4 20.6 41.9 21.1C41.3 21.7 40.3 22.4 38.6 22.4C35.9 22.4 33.9 20.3 33.9 17.6C33.9 14.9 36 12.8 38.6 12.8C40 12.8 41.1 13.4 41.9 14.1L43.2 12.8C42.1 11.8 40.7 11 38.7 11C35.1 11 32 14 32 17.6C32 21.2 35.1 24.2 38.7 24.2C40.7 24.2 42.1 23.6 43.3 22.3C44.5 21.1 44.9 19.4 44.9 18.1V18.1C44.9 17.7 44.9 17.3 44.8 17H38.6ZM49.6999 15.7C47.2999 15.7 45.3999 17.5 45.3999 20C45.3999 22.4 47.2999 24.3 49.6999 24.3C52.0999 24.3 53.9999 22.5 53.9999 20C53.9999 17.4 52.0999 15.7 49.6999 15.7ZM54.7 20C54.7 17.5 56.6 15.7 59 15.7C61.4 15.7 63.3 17.4 63.3 20C63.3 22.5 61.4 24.3 59 24.3C56.6 24.3 54.7 22.4 54.7 20ZM56.6 19.9C56.6 21.4 57.7 22.5 59 22.5C60.3 22.5 61.4 21.4 61.4 19.9C61.4 18.3 60.3 17.3 59 17.3C57.7 17.3 56.6 18.4 56.6 19.9ZM47.3 19.9C47.3 21.4 48.4 22.5 49.7 22.5C51 22.5 52.1 21.4 52.1 19.9C52.1 18.3 51 17.3 49.7 17.3C48.4 17.3 47.3 18.4 47.3 19.9ZM80.3999 15.7C82.5999 15.7 83.5999 17.4 83.9999 18.4L84.1999 18.9L78.4999 21.3C78.9999 22.2 79.5999 22.6 80.5999 22.6C81.5999 22.6 82.1999 22.1 82.6999 21.4L84.0999 22.4C83.6999 23.1 82.4999 24.3 80.5999 24.3C78.1999 24.3 76.3999 22.4 76.3999 20C76.3999 17.4 78.1999 15.7 80.3999 15.7ZM78.2 19.8C78.2 18.2 79.5 17.3 80.4 17.3C81.1 17.3 81.7999 17.7 82 18.2L78.2 19.8ZM75.4 23.8999H73.5V11.3999H75.4V23.8999ZM70.5 16.6001C70 16.1001 69.2 15.6001 68.2 15.6001C66.1 15.6001 64.1 17.5001 64.1 19.9001C64.1 22.3001 66 24.1001 68.2 24.1001C69.2 24.1001 70 23.6001 70.4 23.1001H70.5V23.7001C70.5 25.3001 69.6 26.2001 68.2 26.2001C67.1 26.2001 66.3 25.4001 66.1 24.7001L64.5 25.4001C65 26.5001 66.2 27.9001 68.3 27.9001C70.5 27.9001 72.3 26.6001 72.3 23.5001V15.9001H70.5V16.6001ZM65.8999 19.9C65.8999 21.4 66.9999 22.5 68.2999 22.5C69.5999 22.5 70.5999 21.4 70.5999 19.9C70.5999 18.4 69.5999 17.3 68.2999 17.3C66.9999 17.3 65.8999 18.4 65.8999 19.9ZM92.7 11.3999H88.2V23.8999H90.1V19.1999H92.7C94.7999 19.1999 96.7999 17.6999 96.7999 15.2999C96.7999 12.8999 94.7999 11.3999 92.7 11.3999ZM90.1001 17.4001H92.8001C94.1001 17.4001 94.9001 16.3001 95.0001 15.2001C95.0001 14.3001 94.2001 13.1001 92.8001 13.1001H90.1001V17.4001ZM104.3 15.6001C102.9 15.6001 101.5 16.2001 101 17.5001L102.7 18.2001C103.1 17.5001 103.7 17.3001 104.4 17.3001C105.4 17.3001 106.3 17.9001 106.4 18.9001V19.0001C106.1 18.8001 105.3 18.5001 104.5 18.5001C102.7 18.5001 100.9 19.5001 100.9 21.3001C100.9 23.0001 102.4 24.1001 104 24.1001C105.3 24.1001 105.9 23.5001 106.4 22.9001H106.5V23.9001H108.3V19.1001C108.1 16.9001 106.4 15.6001 104.3 15.6001ZM102.6 21.4001C102.6 22.2001 103.5 22.5001 104.1 22.5001C105.1 22.5001 106.1 21.7001 106.3 20.5001C106.25 20.48 106.2 20.4598 106.152 20.4399L106.151 20.4397C105.715 20.2617 105.319 20.1001 104.6 20.1001C103.7 20.1001 102.6 20.4001 102.6 21.4001ZM114.6 15.8999L112.5 21.2999H112.4L110.2 15.8999H108.2L111.5 23.4999L109.6 27.6999H111.5L116.6 15.8999H114.6ZM99.7001 23.8999H97.8V11.3999H99.7001V23.8999Z" fill="white"/>
<path d="M1.39999 0.5C1.09999 0.8 0.899994 1.3 0.899994 1.9V24C0.899994 24.6 1.09999 25.1 1.39999 25.4L1.49999 25.5L13.9 13.1V13V12.9L1.39999 0.5Z" fill="url(#paint0_linear_1_259)"/>
<path d="M18 17.2998L13.9 13.1998V12.9998V12.8998L18 8.7998L18.1 8.8998L23 11.6998C24.4 12.4998 24.4 13.7998 23 14.5998L18 17.2998Z" fill="url(#paint1_linear_1_259)"/>
<path d="M18.1 17.2L13.9 13L1.39999 25.5C1.89999 26 2.59999 26 3.49999 25.6L18.1 17.2Z" fill="url(#paint2_linear_1_259)"/>
<path d="M18.1 8.80011L3.49999 0.500112C2.59999 0.000112087 1.89999 0.100112 1.39999 0.600112L13.9 13.0001L18.1 8.80011Z" fill="url(#paint3_linear_1_259)"/>
<path opacity="0.2" d="M17.9999 17.1001L3.4999 25.3001C2.6999 25.8001 1.9999 25.7001 1.4999 25.3001L1.3999 25.4001L1.4999 25.5001C1.9999 25.9001 2.6999 26.0001 3.4999 25.5001L17.9999 17.1001Z" fill="black"/>
<path opacity="0.12" d="M1.4 25.2999C1.1 24.9999 1 24.4999 1 23.8999V23.9999C1 24.5999 1.2 25.0999 1.5 25.3999V25.2999H1.4Z" fill="black"/>
<path opacity="0.12" d="M23.0001 14.3L18.0001 17.1L18.1001 17.2L23.0001 14.4C23.7001 14 24.0001 13.5 24.0001 13C24.0001 13.5 23.6001 13.9 23.0001 14.3Z" fill="black"/>
<path opacity="0.25" d="M3.5 0.59988L23 11.6999C23.6 12.0999 24 12.4999 24 12.9999C24 12.4999 23.7 11.9999 23 11.5999L3.5 0.49988C2.1 -0.30012 1 0.39988 1 1.99988V2.09988C1 0.49988 2.1 -0.20012 3.5 0.59988Z" fill="white"/>
<defs>
<linearGradient id="paint0_linear_1_259" x1="8.43627" y1="-14.4272" x2="-11.4314" y2="-9.05499" gradientUnits="userSpaceOnUse">
<stop stop-color="#00A0FF"/>
<stop offset="0.00657445" stop-color="#00A1FF"/>
<stop offset="0.2601" stop-color="#00BEFF"/>
<stop offset="0.5122" stop-color="#00D2FF"/>
<stop offset="0.7604" stop-color="#00DFFF"/>
<stop offset="1" stop-color="#00E3FF"/>
</linearGradient>
<linearGradient id="paint1_linear_1_259" x1="24.8344" y1="2.8695" x2="0.637494" y2="2.8695" gradientUnits="userSpaceOnUse">
<stop stop-color="#FFE000"/>
<stop offset="0.4087" stop-color="#FFBD00"/>
<stop offset="0.7754" stop-color="#FFA500"/>
<stop offset="1" stop-color="#FF9C00"/>
</linearGradient>
<linearGradient id="paint2_linear_1_259" x1="1.08275" y1="6.51402" x2="-14.8826" y2="33.3184" gradientUnits="userSpaceOnUse">
<stop stop-color="#FF3A44"/>
<stop offset="1" stop-color="#C31162"/>
</linearGradient>
<linearGradient id="paint3_linear_1_259" x1="-8.31731" y1="-2.9203" x2="-1.24432" y2="9.06543" gradientUnits="userSpaceOnUse">
<stop stop-color="#32A071"/>
<stop offset="0.0685" stop-color="#2DA771"/>
<stop offset="0.4762" stop-color="#15CF74"/>
<stop offset="0.8009" stop-color="#06E775"/>
<stop offset="1" stop-color="#00F076"/>
</linearGradient>
</defs>
</svg>
