<svg width="17" height="17" viewBox="0 0 17 17" fill="none" xmlns="http://www.w3.org/2000/svg">
<path fill-rule="evenodd" clip-rule="evenodd" d="M8.43747 -0.00012207C6.14599 -0.00012207 5.85911 0.00972168 4.95911 0.0505029C1.89489 0.191128 0.191923 1.89128 0.0512976 4.95832C0.00981323 5.85902 -3.05176e-05 6.14589 -3.05176e-05 8.43738C-3.05176e-05 10.7289 0.00981323 11.0164 0.0505945 11.9164C0.191219 14.9807 1.89138 16.6836 4.95841 16.8243C5.85911 16.865 6.14599 16.8749 8.43747 16.8749C10.729 16.8749 11.0165 16.865 11.9165 16.8243C14.9779 16.6836 16.6851 14.9835 16.8236 11.9164C16.8651 11.0164 16.875 10.7289 16.875 8.43738C16.875 6.14589 16.8651 5.85902 16.8243 4.95902C16.6865 1.89761 14.9843 0.191831 11.9172 0.0512061C11.0165 0.00972168 10.729 -0.00012207 8.43747 -0.00012207ZM8.43752 1.521C10.6903 1.521 10.9575 1.52943 11.8477 1.57021C14.1342 1.67428 15.2023 2.7592 15.3063 5.02889C15.3471 5.91834 15.3549 6.18553 15.3549 8.43834C15.3549 10.6919 15.3464 10.9583 15.3063 11.8478C15.2016 14.1154 14.1363 15.2024 11.8477 15.3065C10.9575 15.3472 10.6917 15.3557 8.43752 15.3557C6.1847 15.3557 5.91752 15.3472 5.02806 15.3065C2.73588 15.2017 1.67345 14.1119 1.56939 11.8471C1.52861 10.9576 1.52017 10.6912 1.52017 8.43764C1.52017 6.18482 1.52931 5.91834 1.56939 5.02818C1.67416 2.7592 2.73939 1.67357 5.02806 1.56951C5.91822 1.52943 6.1847 1.521 8.43752 1.521ZM4.10495 8.43752C4.10495 6.04478 6.04487 4.10486 8.43761 4.10486C10.8303 4.10486 12.7703 6.04478 12.7703 8.43752C12.7703 10.831 10.8303 12.7709 8.43761 12.7709C6.04487 12.7709 4.10495 10.8302 4.10495 8.43752ZM8.43747 11.2499C6.88427 11.2499 5.62497 9.99128 5.62497 8.43738C5.62497 6.88417 6.88427 5.62488 8.43747 5.62488C9.99067 5.62488 11.25 6.88417 11.25 8.43738C11.25 9.99128 9.99067 11.2499 8.43747 11.2499ZM11.9285 3.93389C11.9285 3.3749 12.382 2.92139 12.9417 2.92139C13.5007 2.92139 13.9535 3.3749 13.9535 3.93389C13.9535 4.49287 13.5007 4.94639 12.9417 4.94639C12.382 4.94639 11.9285 4.49287 11.9285 3.93389Z" fill="white"/>
</svg>
