<svg width="11" height="18" viewBox="0 0 11 18" fill="none" xmlns="http://www.w3.org/2000/svg">
<path fill-rule="evenodd" clip-rule="evenodd" d="M5.06237 9.28981C7.55041 9.28981 9.57376 7.20695 9.57376 4.64602C9.57376 2.08375 7.55063 0 5.06237 0C2.57453 0 0.550968 2.08397 0.550968 4.64602C0.550968 7.20695 2.57453 9.28981 5.06237 9.28981ZM5.06237 2.72259C6.09239 2.72259 6.93024 3.58535 6.93024 4.64602C6.93024 5.70579 6.09218 6.56855 5.06237 6.56855C4.03298 6.56855 3.19493 5.70579 3.19493 4.64602C3.19471 3.58513 4.0332 2.72259 5.06237 2.72259ZM9.50699 11.9621C8.70116 12.4837 7.8155 12.8613 6.88743 13.079L9.40895 15.6768C9.65725 15.9317 9.79681 16.2779 9.79681 16.639C9.79681 17 9.65725 17.3462 9.40895 17.6011C9.16138 17.8564 8.82539 17.9999 8.47501 17.9999C8.12464 17.9999 7.78865 17.8564 7.54108 17.6011L5.06188 15.0491L2.5842 17.6009C2.25034 17.9448 1.76368 18.0792 1.30752 17.9534C0.851363 17.8276 0.495019 17.4608 0.372719 16.9911C0.250419 16.5215 0.380743 16.0203 0.714599 15.6764L3.23655 13.079C2.30868 12.8611 1.42319 12.4835 0.617427 11.9621C-0.000102769 11.5616 -0.185521 10.7215 0.203256 10.0855C0.389603 9.77972 0.686415 9.56276 1.02826 9.48251C1.3701 9.40226 1.7289 9.46529 2.02556 9.65772C3.87227 10.8534 6.25106 10.8542 8.09928 9.65772C8.39599 9.46534 8.75481 9.40233 9.09667 9.48258C9.43853 9.56283 9.73538 9.77975 9.92181 10.0855C10.3105 10.7217 10.1247 11.5618 9.50699 11.9621Z" fill="white"/>
</svg>
