<svg width="183" height="45" viewBox="0 0 183 45" fill="none" xmlns="http://www.w3.org/2000/svg">
<g clip-path="url(#clip0_1_317)">
<path d="M71.8064 44.8568H73.0406V42.4223H75.3455C76.4161 42.4223 78.1755 42.4223 78.1755 40.4993C78.1755 38.5695 76.4161 38.5695 75.3455 38.5695H71.8132V44.8568H71.8064ZM73.0406 41.3585V39.6333H75.6115C76.3207 39.6333 76.9412 39.6878 76.9412 40.4925C76.9412 41.2971 76.3207 41.3585 75.6115 41.3585H73.0406Z" fill="#231F20"/>
<path d="M79.6554 44.8568H80.9783L81.6466 43.4179H85.3017L85.9631 44.8568H87.2724L84.1901 38.5695H82.7717L79.6554 44.8568ZM82.1648 42.3609L83.4878 39.5514L84.8175 42.3609H82.1648Z" fill="#231F20"/>
<path d="M90.3613 44.8568H91.5956V42.3746H93.5663L95.4143 44.8568H96.935L94.9915 42.2928C95.9258 42.245 96.7577 41.604 96.7577 40.4448C96.7577 38.9104 95.6871 38.5763 94.18 38.5763H90.3613V44.8568ZM91.5956 41.3585V39.5855H93.9959C95.012 39.5855 95.5234 39.7356 95.5234 40.472C95.5234 41.2085 95.0052 41.3585 93.9959 41.3585H91.5956Z" fill="#231F20"/>
<path d="M101.858 38.5763H100.624V44.8636H101.858V38.5763Z" fill="#231F20"/>
<path d="M110.621 40.4789C110.43 39.9265 109.912 39.4423 108.405 39.4423C107.559 39.4423 106.721 39.6537 106.721 40.2265C106.721 40.4993 106.877 40.7789 108.146 40.9289L109.639 41.154C111.058 41.3722 111.896 41.9109 111.896 42.961C111.896 44.4408 110.471 45 108.78 45C106.066 45 105.398 43.6634 105.248 43.1861L106.434 42.8178C106.666 43.2747 107.13 43.943 108.807 43.943C109.823 43.943 110.655 43.6089 110.655 43.0633C110.655 42.661 110.185 42.3951 109.278 42.2859L107.764 42.0746C106.298 41.8768 105.486 41.2426 105.486 40.2947C105.486 38.4263 107.941 38.4263 108.432 38.4263C111.167 38.4263 111.624 39.6742 111.787 40.097L110.621 40.4789Z" fill="#231F20"/>
<path d="M157.483 28.2111C157.994 32.5822 160.279 31.9275 160.401 32.3094C160.401 32.3094 151.591 32.2958 151.591 32.2821C151.55 32.1253 154.121 32.2344 153.61 28.3952L151.311 11.3267C151.209 10.8766 151.209 10.3583 150.971 10.4811C150.786 10.5629 143.21 28.9134 143.21 28.9134C143.094 29.2203 142.903 29.4112 142.658 28.9748C142.481 28.6611 135.559 13.4338 135.559 13.4338C135.218 12.6701 134.611 11.4562 134.509 11.2448C134.332 10.863 134.066 10.8152 134.086 12.0904L132.293 29.384C131.856 32.3981 134.707 32.173 134.666 32.3708H128.419C128.351 32.2139 130.52 32.5003 130.997 29.3294L133.05 10.2288C132.893 6.53276 130.295 6.73052 130.295 6.42366H136.855L136.95 6.62823L143.913 21.8214C144.015 22.0056 144.076 22.0942 144.131 22.2101C144.335 22.6329 144.315 22.9398 144.547 22.3602L151.366 6.4032L157.674 6.42366C157.715 6.64187 155.137 6.53276 155.137 9.7037L157.483 28.2111Z" fill="#231F20"/>
<path d="M13.6316 31.4571L10.0652 31.4639C8.83088 31.4162 7.3443 31.648 7.3443 30.1751V10.0856C7.3443 6.9829 10.788 6.96926 11.013 6.73059H0.409153C0.265949 6.94199 3.6551 7.03746 3.6551 10.2016V29.575C3.60737 32.139 0 32.2004 0 32.3504H18.7733L19.8166 26.8064C19.4279 26.7654 19.7075 31.3821 13.6316 31.4571Z" fill="#231F20"/>
<path d="M169.573 19.5575L169.58 25.9471V29.3089C169.608 31.2524 169.423 31.4775 170.692 31.4911L177.627 31.4775C183.171 31.1433 182.189 27.2495 182.66 27.1541L182.496 32.364H163.007C162.925 32.173 165.905 32.664 165.905 28.4088V25.0469V10.4538C165.905 6.19181 163.163 6.83963 163.197 6.50549H182.496L182.66 11.6335C182.278 11.5994 183.294 7.61702 177.552 7.26243H171.149C170.194 7.50792 169.58 6.85327 169.58 9.39002L169.573 14.9136L169.594 16.1479C169.594 17.0889 169.614 17.1776 170.937 17.1776H177.129C180.252 17.1776 179.83 14.3544 180.109 14.3544C180.116 14.3544 180.109 21.0372 180.109 21.0372C179.83 21.0372 180.246 17.9413 177.279 18.0368H171.012C169.635 18.0095 169.587 18.5073 169.587 19.4484L169.573 19.5575Z" fill="#231F20"/>
<path d="M53.64 29.6704C54.0014 32.8618 56.4358 32.0503 56.4358 32.3572L49.6303 32.364C49.6575 32.0571 52.3579 32.3503 52.317 29.4726V29.1862V10.0174C52.3648 6.65554 49.4393 6.64872 49.3575 6.38959H56.1903L70.3198 23.915L70.272 9.69009C70.1766 6.26002 67.5512 6.49869 67.5102 6.31458H74.6363C74.609 6.48506 71.82 6.55325 71.6768 9.69009L71.6495 31.7025C71.6495 31.7025 71.895 33.3732 70.8789 32.0571C70.4357 31.4775 53.8923 10.522 53.8923 10.522C53.7354 10.3447 53.6672 10.5357 53.6536 11.0539L53.64 29.3908V29.6704Z" fill="#231F20"/>
<path d="M44.4885 29.0976L34.9825 6.52603C34.2938 5.75546 34.0483 6.63513 34.0483 6.63513C33.1141 8.81046 24.4264 29.7182 24.4264 29.7182C23.2467 32.5072 21.7055 32.1731 21.7055 32.364H27.8496C27.8496 32.0503 24.5355 32.5618 25.6743 29.6636L28.9612 21.6101C29.3021 21.1055 29.3226 20.9487 30.1409 20.9487C31.4979 20.9487 35.6508 20.9418 36.2782 20.9418C37.0351 20.9418 37.0692 20.9418 37.3897 21.6851L40.4925 29.3022C41.4062 32.3436 38.6376 32.1731 38.6786 32.364H47.4072C47.4822 32.1049 46.0706 32.9846 44.4885 29.0976ZM30.7274 19.7076C30.0454 19.7076 30.1409 19.3052 30.4 18.671C30.4 18.671 32.7186 12.8884 32.9913 12.186C33.3459 11.2858 33.7278 11.4631 33.9938 12.2337L36.3191 18.7665C36.5578 19.4962 36.8442 19.7008 36.06 19.7008H30.7274V19.7076Z" fill="#231F20"/>
<path d="M124.867 5.15533L114.413 0L103.966 5.15533L114.413 1.95711L124.867 5.15533Z" fill="#231F20"/>
<path d="M114.467 5.93958C106.339 5.93958 101.074 12.4178 101.074 19.3121C101.074 26.2063 106.271 32.3504 114.406 32.3504C122.541 32.3504 127.874 26.2063 127.874 19.3121C127.874 12.4178 122.61 5.93958 114.467 5.93958ZM114.413 31.3889H114.338H114.331C109.333 31.3889 106.025 26.6973 106.025 19.3734C106.025 10.9858 109.408 6.92154 114.406 6.92154C114.413 6.92154 114.413 6.92836 114.413 6.92836C119.405 6.93518 122.8 10.9926 122.8 19.3734C122.8 26.6563 119.37 31.3343 114.413 31.3889Z" fill="#231F20"/>
<path d="M89.6591 31.3343C95.5441 31.232 98.1626 27.1541 98.6945 26.9631C98.9469 26.8677 95.8168 32.3094 89.5841 32.3094C75.5638 32.3094 75.8161 19.6052 75.8161 19.6052C76.2457 10.6857 83.4672 5.36669 90.3751 6.09635C92.2299 6.2941 93.0346 6.58733 94.3984 7.01694C95.0326 7.22834 96.7511 8.15575 97.4398 7.90344C97.9172 7.72614 98.2718 6.71008 98.3945 6.6487L98.4559 13.6111C97.9581 13.6111 96.4238 6.91465 89.7477 6.91465C84.2787 6.91465 80.1326 13.1679 80.2281 19.2847C80.3713 29.5203 87.511 31.3615 89.6591 31.3343Z" fill="#231F20"/>
</g>
<defs>
<clipPath id="clip0_1_317">
<rect width="182.659" height="45" fill="white"/>
</clipPath>
</defs>
</svg>
